# xmcd
# 
# Track frame offsets:
#     150
#     3940
#     40017
#     60852
#     96617
#     102250
#     124377
#     176500
# 
# Disc length: 2465
# 
# Revision: 17
# Processed by: cddbd v1.5.2PL0 Copyright (c) Steve Scherf et al.
# Submitted via: fre:ac v1.0.27
# 
DISCID=5f099f08
DTITLE=King Crimson - In The Wake Of Poseidon
DYEAR=1970
DGENRE=Progressive Rock
TTITLE0=Peace - A Beginning
TTITLE1=Pictures Of A City
TTITLE2=Cadence And Cascade
TTITLE3=In The Wake Of Poseidon
TTITLE4=Peace - A Theme
TTITLE5=Cat Food
TTITLE6=The Devil's Triangle
TTITLE7=Peace - An End
EXTD=
EXTT0=(Robert Fripp//Peter Sinfield)
EXTT1=(Robert Fripp//Peter Sinfield)
EXTT2=(Robert Fripp//Peter Sinfield)
EXTT3=(Robert Fripp//Peter Sinfield)
EXTT4=(Robert Fripp)
EXTT5=(Robert Fripp/Ian McDonald//Peter Sinfield)
EXTT6=(Robert Fripp/Ian McDonald [co-composer on "Merday Morn" only])
EXTT7=(Robert Fripp//Peter Sinfield)
PLAYORDER=
